<?xml version="1.0" encoding="UTF-8" standalone="no"?>
<!-- Created with Inkscape (http://www.inkscape.org/) -->

<svg
   xmlns:osb="http://www.openswatchbook.org/uri/2009/osb"
   xmlns:dc="http://purl.org/dc/elements/1.1/"
   xmlns:cc="http://creativecommons.org/ns#"
   xmlns:rdf="http://www.w3.org/1999/02/22-rdf-syntax-ns#"
   xmlns:svg="http://www.w3.org/2000/svg"
   xmlns="http://www.w3.org/2000/svg"
   xmlns:sodipodi="http://sodipodi.sourceforge.net/DTD/sodipodi-0.dtd"
   xmlns:inkscape="http://www.inkscape.org/namespaces/inkscape"
   width="1024"
   height="1024"
   viewBox="0 0 1024 1024"
   version="1.1"
   id="svg8"
   inkscape:version="0.92.2 5c3e80d, 2017-08-06"
   sodipodi:docname="icon_inkscape.svg"
   inkscape:export-filename="/Users/jbpjackson/GitHub/chessahoochee/assets/icon.png"
   inkscape:export-xdpi="96"
   inkscape:export-ydpi="96">
  <defs
     id="defs2">
    <linearGradient
       id="linearGradient6313"
       osb:paint="solid">
      <stop
         style="stop-color:#f9f9fa;stop-opacity:1;"
         offset="0"
         id="stop6311" />
    </linearGradient>
    <clipPath
       clipPathUnits="userSpaceOnUse"
       id="clipPath6342">
      <circle
         r="480"
         cy="544"
         cx="512"
         id="circle6344"
         style="opacity:1;fill:#363959;fill-opacity:1;fill-rule:evenodd;stroke:none;stroke-width:16.30694008;stroke-linejoin:round;stroke-miterlimit:4;stroke-dasharray:none;stroke-opacity:1;paint-order:fill markers stroke" />
    </clipPath>
    <clipPath
       clipPathUnits="userSpaceOnUse"
       id="clipPath6346">
      <circle
         r="480"
         cy="544"
         cx="512"
         id="circle6348"
         style="opacity:1;fill:#363959;fill-opacity:1;fill-rule:evenodd;stroke:none;stroke-width:16.30694008;stroke-linejoin:round;stroke-miterlimit:4;stroke-dasharray:none;stroke-opacity:1;paint-order:fill markers stroke" />
    </clipPath>
    <clipPath
       clipPathUnits="userSpaceOnUse"
       id="clipPath6350">
      <circle
         r="480"
         cy="544"
         cx="512"
         id="circle6352"
         style="opacity:1;fill:#363959;fill-opacity:1;fill-rule:evenodd;stroke:none;stroke-width:16.30694008;stroke-linejoin:round;stroke-miterlimit:4;stroke-dasharray:none;stroke-opacity:1;paint-order:fill markers stroke" />
    </clipPath>
  </defs>
  <sodipodi:namedview
     id="base"
     pagecolor="#ffffff"
     bordercolor="#666666"
     borderopacity="1.0"
     inkscape:pageopacity="0.0"
     inkscape:pageshadow="2"
     inkscape:zoom="0.5"
     inkscape:cx="492"
     inkscape:cy="539"
     inkscape:document-units="px"
     inkscape:current-layer="g1039"
     showgrid="true"
     units="px"
     inkscape:window-width="1440"
     inkscape:window-height="855"
     inkscape:window-x="0"
     inkscape:window-y="1"
     inkscape:window-maximized="1"
     inkscape:measure-start="0,0"
     inkscape:measure-end="0,0"
     showguides="false">
    <inkscape:grid
       type="xygrid"
       id="grid815"
       spacingx="32"
       spacingy="32"
       enabled="false" />
    <inkscape:grid
       type="xygrid"
       id="grid4807"
       spacingx="64"
       spacingy="64"
       enabled="false" />
  </sodipodi:namedview>
  <metadata
     id="metadata5">
    <rdf:RDF>
      <cc:Work
         rdf:about="">
        <dc:format>image/svg+xml</dc:format>
        <dc:type
           rdf:resource="http://purl.org/dc/dcmitype/StillImage" />
        <dc:title />
      </cc:Work>
    </rdf:RDF>
  </metadata>
  <g
     inkscape:groupmode="layer"
     id="layer6"
     inkscape:label="circle background"
     style="display:inline">
    <circle
       style="opacity:1;fill:#363959;fill-opacity:1;fill-rule:evenodd;stroke:none;stroke-width:16.30694008;stroke-linejoin:round;stroke-miterlimit:4;stroke-dasharray:none;stroke-opacity:1;paint-order:fill markers stroke"
       id="path6328"
       cx="512"
       cy="544"
       r="480" />
  </g>
  <g
     inkscape:groupmode="layer"
     id="layer5"
     inkscape:label="Full background"
     style="display:none">
    <rect
       style="opacity:1;fill:#363959;fill-opacity:1;fill-rule:evenodd;stroke:none;stroke-width:15.75399971;stroke-linejoin:round;stroke-miterlimit:4;stroke-dasharray:none;stroke-opacity:1;paint-order:fill markers stroke"
       id="rect6322"
       width="1024"
       height="1024"
       x="0"
       y="0" />
  </g>
  <g
     inkscape:groupmode="layer"
     id="layer2"
     inkscape:label="Green trail"
     style="display:inline;opacity:1">
    <path
       style="display:inline;opacity:1;fill:#0d7758;fill-opacity:1;fill-rule:nonzero;stroke:none;stroke-width:7.923491;stroke-linejoin:round;stroke-miterlimit:4;stroke-dasharray:none;stroke-opacity:1;paint-order:fill markers stroke"
       d="M 448,256 225.75781,942.86719 h 333.25977 l -31.63672,97.36911 h 192 l 8.01172,-24.6601 h 0.0332 l 158.3457,-487.33987 h -0.0312 -4.21093 L 951.29688,312.60742 466.53516,283.28711 Z"
       id="rect1047"
       inkscape:connector-curvature="0"
       clip-path="url(#clipPath6350)" />
  </g>
  <g
     inkscape:groupmode="layer"
     id="layer3"
     inkscape:label="Green King"
     style="display:inline;opacity:1">
    <g
       style="clip-rule:evenodd;opacity:1;fill-rule:evenodd;image-rendering:optimizeQuality;shape-rendering:geometricPrecision;text-rendering:geometricPrecision"
       id="g3299"
       transform="matrix(3.7419568,0,0,3.7419568,450.80634,463.31855)">
      <path
         id="path3285"
         d="m 69.152988,-84.673887 h -5.634306 v -10.40426 h -6.61711 c -1.786331,0 -2.682698,-0.870756 -2.682698,-2.631477 v -0.08003 c 0,-1.73511 0.896367,-2.602666 2.682698,-2.602666 h 6.613908 v -6.74836 c 0,-1.87277 0.95079,-2.79155 2.849167,-2.79155 1.840753,0 2.788341,0.91878 2.788341,2.79155 v 6.74836 h 6.831598 c 1.73511,0 2.602665,0.864354 2.602665,2.602666 v 0.08003 c 0,1.760721 -0.867555,2.628276 -2.602665,2.628276 l -6.777175,0.08323 z M 21.802401,-2.3297725 19.199736,-17.183854 c -0.05442,0 -0.134455,-0.105643 -0.2433,-0.323332 -0.272111,-0.380956 -1.030822,-0.867555 -2.276132,-1.462999 -1.219699,-0.624256 -2.682698,-1.655078 -4.308964,-3.143687 a 134.42304,134.42304 0 0 1 -5.4486309,-4.769953 27.239953,27.239953 0 0 1 -3.521442,-3.960022 c -3.23012202,-4.440218 -5.048467,-9.812017 -5.400611,-16.125002 -0.544223,-6.072886 1.92398798,-12.145773 7.372619,-18.189848 5.5030529,-6.018464 12.9557039,-8.861228 22.3067329,-8.483474 3.495831,0.21769 7.619119,1.056433 12.305838,2.548244 1.546233,0.624255 3.118077,1.248511 4.744343,1.843955 l 4.795563,1.869565 c 0.841945,0.435379 1.600656,0.867555 2.224911,1.274122 a 14.021741,14.021741 0 0 1 -0.406566,-3.332565 c 0,-4.120086 1.462999,-7.64473 4.417809,-10.570727 2.925998,-2.900388 6.476251,-4.392198 10.596338,-4.446621 4.120087,0 7.64473,1.491811 10.570728,4.417809 2.900388,2.929199 4.363387,6.450641 4.363387,10.516305 0,0.841945 -0.108845,1.9528 -0.323333,3.335766 0.729899,-0.460989 1.462999,-0.867555 2.141677,-1.194089 2.439399,-1.056432 5.634307,-2.304943 9.619939,-3.71352 4.555465,-1.543032 8.646738,-2.410587 12.305838,-2.628276 9.35103,-0.435379 16.77807,2.410587 22.2267,8.483473 5.33979,6.044075 7.83361,12.116962 7.45265,18.186647 -0.40656,6.316186 -2.25052,11.684784 -5.47424,16.128203 -1.05643,1.437389 -2.25052,2.762732 -3.57906,4.011243 a 129.65308,129.65308 0 0 1 -5.31418,4.71553 c -1.73191,1.491811 -3.22372,2.548244 -4.44342,3.143688 -1.2165,0.595443 -1.92079,1.110854 -2.14168,1.462999 a 0.94118536,0.94118536 0 0 1 -0.16006,0.246501 c -0.0544,0.05442 -0.0832,0.108844 -0.0832,0.160065 l -2.54824,14.9373155 5.25975,19.5952235 c -2.65709,2.384977 -8.59232,4.337776 -17.780082,5.880808 -9.216573,1.546233 -19.867334,2.304944 -31.929873,2.304944 -12.277027,0 -23.094256,-0.813133 -32.390862,-2.413789 C 24.808436,21.494382 18.953239,19.46155 16.568262,17.050963 Z"
         inkscape:connector-curvature="0"
         style="fill:#14b184;fill-opacity:1;stroke:none;stroke-width:3.20131063;stroke-opacity:1" />
      <path
         id="path3287"
         d="m 66.364647,-56.972945 a 7.3470081,7.3470081 0 0 0 -0.409768,-1.354155 17.946548,17.946548 0 0 0 -0.784321,-2.304944 c -0.163267,-0.352144 -0.380956,-0.813133 -0.624256,-1.379765 a 28.901433,28.901433 0 0 1 -0.813133,-1.792734 c -0.160065,-0.377754 -0.352144,-0.864354 -0.595443,-1.459797 -0.21769,-0.624256 -0.435379,-1.194089 -0.598646,-1.7095 a 5.5542741,5.5542741 0 0 1 -0.214487,-1.517422 c 0,-2.791543 1.328544,-4.200119 4.036852,-4.200119 2.817154,0 4.203321,1.379765 4.203321,4.120087 0,0.704288 -0.108844,1.190887 -0.300923,1.517421 -0.75871,2.004021 -1.136465,3.089265 -1.190887,3.252532 -0.813133,1.600655 -1.299732,2.628276 -1.517422,3.089265 -0.380956,0.864353 -0.624255,1.626265 -0.704288,2.304943 -0.163267,0.323333 -0.272111,0.595444 -0.326534,0.838744 -0.05442,0.2433 -0.108844,0.435378 -0.160065,0.595444 z m -8.893241,27.40322 c -6.613908,0.108844 -12.657983,0.435378 -18.161036,1.030822 -5.474242,0.569833 -9.699972,1.408577 -12.738016,2.465009 a 60.738469,60.738469 0 0 0 -5.503053,-5.93523 105.66566,105.66566 0 0 1 -5.528663,-5.583086 c -2.657088,-2.71151 -3.956821,-5.66632 -3.956821,-8.89004 0,-3.985632 0.649867,-6.882818 1.97841,-8.726773 1.408577,-2.144878 3.633488,-3.713521 6.588298,-4.744343 a 27.166323,27.166323 0 0 1 8.970073,-1.546233 c 3.822365,0 7.452651,0.841945 10.948482,2.548243 3.444611,1.792735 5.720743,3.226922 6.831598,4.283355 3.604675,3.659098 6.42503,7.619119 8.429051,11.899272 0.678678,1.600655 1.194089,3.822365 1.546233,6.639518 0.352144,2.849167 0.544223,5.016454 0.595444,6.562687 z m 8.890039,-13.82326 c 0.380956,-1.491811 0.678678,-2.519431 0.947588,-3.089265 0.544223,-2.058443 1.139667,-3.822365 1.843955,-5.259753 0.297722,-0.893166 0.758711,-1.920787 1.382967,-3.114876 0.595443,-1.194089 1.248511,-2.577055 1.952799,-4.094477 0.406567,-0.896367 0.864354,-2.00402 1.328544,-3.306954 0.486599,-1.299732 0.973199,-2.573853 1.434187,-3.847975 0.435379,-1.056433 0.649866,-2.196099 0.649866,-3.415799 0,-2.602665 -0.947588,-4.795563 -2.791542,-6.613908 -1.840754,-1.840753 -4.091276,-2.76273 -6.748364,-2.76273 -6.287374,0 -9.459873,3.169297 -9.459873,9.459872 0,1.216499 0.217689,2.356165 0.649866,3.412598 1.168479,3.44461 2.061644,5.826385 2.6859,7.158131 0.704288,1.517421 1.328544,2.900388 1.920786,4.091275 0.573035,1.194089 1.088446,2.22171 1.491811,3.118077 0.704289,1.760721 1.274122,3.495831 1.760721,5.256552 0.112046,0.297722 0.409768,1.328544 0.950789,3.009232 z m -2.845965,19.921757 c 0,-2.112865 -0.05442,-5.042065 -0.160065,-8.755585 -0.108845,-3.739131 -0.515411,-6.857208 -1.194089,-9.347827 -2.167288,-7.074897 -5.448631,-12.795639 -9.86644,-17.130215 -2.276132,-2.224911 -5.746353,-4.312165 -10.461883,-6.210542 -5.394209,-2.112866 -10.516306,-3.169298 -15.340681,-3.169298 -8.349019,0 -14.55636,2.98042 -18.5676029,8.973274 -2.276132,3.169298 -3.415798,7.15493 -3.415798,11.896071 0,5.205331 1.274121,9.459873 3.796754,12.795639 1.328544,1.895176 3.8735859,4.254542 7.6415289,7.074897 3.742332,2.791543 6.940442,5.391007 9.514295,7.779185 4.609888,-1.005212 9.812018,-1.872767 15.612793,-2.631478 5.800775,-0.7331 13.282238,-1.165277 22.441188,-1.274121 z m 44.12687,37.567381 -2.35937,-9.3798405 C 94.958754,2.3601475 81.974238,1.1660585 66.361445,1.1660585 c -15.449525,0 -28.376418,1.194089 -38.758269,3.553455 L 25.083745,14.176186 C 35.135861,11.115733 48.907899,9.5694995 66.44468,9.5694995 c 8.400239,0 16.233846,0.4353785 23.417588,1.2741225 7.209351,0.838743 13.144582,1.923987 17.780082,3.252531 z m -2.05844,-23.7441215 c -9.73199,-2.6826985 -22.716506,-4.0368525 -38.895931,-4.0368525 -16.317081,0 -29.436052,1.379765 -39.382525,4.1200865 l 1.190888,8.022484 c 10.004096,-2.602665 22.7133,-3.905599 38.191637,-3.905599 15.395104,0 27.944242,1.274122 37.621801,3.822365 z M 69.207411,-23.387994 c 9.107729,0.160065 16.589192,0.621054 22.415578,1.354154 5.800775,0.7331 11.060531,1.626266 15.718431,2.628276 2.90359,-2.871575 6.12731,-5.583085 9.67757,-8.185751 3.55025,-2.602666 6.04407,-4.824375 7.48146,-6.66833 2.52263,-3.441409 3.79675,-7.724763 3.79675,-12.872471 0,-4.68992 -1.13966,-8.64674 -3.41579,-11.81924 -4.06567,-5.986451 -10.30182,-8.970072 -18.64764,-8.970072 -4.8788,0 -9.949673,1.056432 -15.260648,3.169297 -4.824375,1.898378 -8.291394,3.960022 -10.490695,6.17853 -4.497841,4.366588 -7.779185,10.084129 -9.837628,17.159026 -0.787522,2.439399 -1.219699,5.528664 -1.302933,9.296607 -0.08323,3.767942 -0.134455,6.66833 -0.134455,8.729974 z m 5.800775,-6.17853 c 0,-1.546233 0.192078,-3.71352 0.512209,-6.562687 0.355346,-2.817153 0.896367,-5.042064 1.629468,-6.639518 1.97841,-4.283354 4.769953,-8.240174 8.429051,-11.899272 1.056432,-1.056433 3.335766,-2.493821 6.831597,-4.283355 a 24.506034,24.506034 0 0 1 11.031719,-2.548243 c 2.97722,0 5.90642,0.515411 8.86123,1.546233 2.9292,1.030822 5.15091,2.602666 6.6139,4.744343 1.32855,1.789533 2.00723,4.686719 2.00723,8.726773 0,3.169298 -1.30294,6.124108 -3.9056,8.89004 a 129.17289,129.17289 0 0 1 -5.47424,5.285364 c -1.9528,1.760721 -3.84798,3.847976 -5.63431,6.232952 -3.06686,-1.056432 -7.34701,-1.895176 -12.824452,-2.465009 -5.474242,-0.595444 -11.492706,-0.921978 -18.077802,-1.030822 z"
         inkscape:connector-curvature="0"
         style="fill:#f9f9fa;fill-opacity:1;stroke-width:3.20131063" />
    </g>
  </g>
  <g
     inkscape:label="Red trail"
     id="g1039"
     inkscape:groupmode="layer"
     style="display:inline;opacity:1">
    <path
       inkscape:connector-curvature="0"
       id="path1110"
       d="m 64,384 -222.24221,686.867 h 493.29104 28.32227 3.67773 L 501.77149,656.23633 H 497.5293 L 567.29688,440.60742 82.53516,411.28711 Z"
       style="display:inline;opacity:1;fill:#c00043;fill-opacity:1;fill-rule:nonzero;stroke:none;stroke-width:7.923491;stroke-linejoin:round;stroke-miterlimit:4;stroke-dasharray:none;stroke-opacity:1;paint-order:fill markers stroke"
       clip-path="url(#clipPath6346)" />
  </g>
  <g
     inkscape:label="Red King"
     id="g896"
     inkscape:groupmode="layer"
     style="display:inline">
    <g
       transform="matrix(3.7795276,0,0,3.7795276,352.55848,459.60836)"
       id="g894"
       style="clip-rule:evenodd;fill-rule:evenodd;image-rendering:optimizeQuality;shape-rendering:geometricPrecision;text-rendering:geometricPrecision">
      <path
         style="fill:#ff0059;fill-opacity:1;stroke-width:3.20131063"
         inkscape:connector-curvature="0"
         d="m -7.5992376,-49.99809 h -5.6343064 v -10.40426 h -6.61711 c -1.786331,0 -2.682698,-0.870756 -2.682698,-2.631477 v -0.08003 c 0,-1.73511 0.896367,-2.602666 2.682698,-2.602666 h 6.613908 v -6.748357 c 0,-1.87277 0.95079,-2.79155 2.849167,-2.79155 1.8407534,0 2.7883414,0.91878 2.7883414,2.79155 v 6.748357 h 6.83159745 c 1.73511,0 2.60266505,0.864354 2.60266505,2.602666 v 0.08003 c 0,1.760721 -0.86755505,2.628276 -2.60266505,2.628276 l -6.77717445,0.08323 z M -54.949825,32.346025 -57.55249,17.491943 c -0.05442,0 -0.134455,-0.105643 -0.2433,-0.323332 -0.272111,-0.380956 -1.030822,-0.867555 -2.276132,-1.462999 -1.219699,-0.624256 -2.682698,-1.655078 -4.308964,-3.143687 A 134.42304,134.42304 0 0 1 -69.829517,7.791972 27.239953,27.239953 0 0 1 -73.350959,3.83195 c -3.230122,-4.44021801 -5.048467,-9.812017 -5.400611,-16.125002 -0.544223,-6.072886 1.923988,-12.145773 7.372619,-18.189848 5.503053,-6.018464 12.955704,-8.861228 22.306733,-8.483474 3.495831,0.21769 7.619119,1.056433 12.305838,2.548244 1.546233,0.624255 3.118077,1.248511 4.744343,1.843955 l 4.795563,1.869565 c 0.841945,0.435379 1.600656,0.867555 2.224911,1.274122 a 14.021741,14.021741 0 0 1 -0.406566,-3.332565 c 0,-4.120086 1.462999,-7.64473 4.417809,-10.570727 2.925998,-2.900388 6.476251,-4.392198 10.596338,-4.446621 4.1200874,0 7.6447299,1.491811 10.57072785,4.417809 2.90038805,2.929199 4.36338705,6.450641 4.36338705,10.516305 0,0.841945 -0.108845,1.9528 -0.323333,3.335766 0.729899,-0.460989 1.462999,-0.867555 2.141677,-1.194089 2.439399,-1.056432 5.6343071,-2.304943 9.6199391,-3.71352 4.555465,-1.543032 8.646738,-2.410587 12.305838,-2.628276 9.35103,-0.435379 16.77807,2.410587 22.2267,8.483473 5.33979,6.044075 7.83361,12.116962 7.45265,18.186647 -0.40656,6.316186 -2.25052,11.68478399 -5.47424,16.128203 -1.05643,1.437389 -2.25052,2.762732 -3.57906,4.011243 a 129.65308,129.65308 0 0 1 -5.31418,4.71553 c -1.73191,1.491811 -3.22372,2.548244 -4.44342,3.143688 -1.2165,0.595443 -1.92079,1.110854 -2.14168,1.462999 a 0.94118536,0.94118536 0 0 1 -0.16006,0.246501 c -0.0544,0.05442 -0.0832,0.108844 -0.0832,0.160065 l -2.54824,14.937316 5.25975,19.595223 c -2.65709,2.384977 -8.59232,4.337776 -17.780082,5.880808 -9.216573,1.546233 -19.8673341,2.304944 -31.929873,2.304944 -12.277027,0 -23.094256,-0.813133 -32.390862,-2.413789 -9.322247,-1.626266 -15.177444,-3.659098 -17.562421,-6.069685 z"
         id="path890" />
      <path
         style="fill:#f9f9fa;fill-opacity:1;stroke-width:3.20131063"
         inkscape:connector-curvature="0"
         d="m -10.387579,-22.297148 a 7.3470081,7.3470081 0 0 0 -0.409768,-1.354155 17.946548,17.946548 0 0 0 -0.784321,-2.304944 c -0.163267,-0.352144 -0.380956,-0.813133 -0.624256,-1.379765 a 28.901433,28.901433 0 0 1 -0.813133,-1.792734 c -0.160065,-0.377754 -0.352144,-0.864354 -0.595443,-1.459797 -0.21769,-0.624256 -0.435379,-1.194089 -0.598646,-1.7095 a 5.5542741,5.5542741 0 0 1 -0.214487,-1.517422 c 0,-2.791543 1.328544,-4.200119 4.036852,-4.200119 2.8171544,0 4.2033214,1.379765 4.2033214,4.120087 0,0.704288 -0.108844,1.190887 -0.300923,1.517421 -0.75871,2.004021 -1.136465,3.089265 -1.190887,3.252532 -0.813133,1.600655 -1.299732,2.628276 -1.517422,3.089265 -0.380956,0.864353 -0.624255,1.626265 -0.704288,2.304943 -0.1632674,0.323333 -0.2721114,0.595444 -0.3265344,0.838744 -0.05442,0.2433 -0.108844,0.435378 -0.160065,0.595444 z m -8.893241,27.40322 c -6.613908,0.108844 -12.657983,0.435378 -18.161036,1.030822 -5.474242,0.569833 -9.699972,1.408577 -12.738016,2.465009 a 60.738469,60.738469 0 0 0 -5.503053,-5.93523 105.66566,105.66566 0 0 1 -5.528663,-5.583086 c -2.657088,-2.71151 -3.956821,-5.66632 -3.956821,-8.89004 0,-3.985632 0.649867,-6.882818 1.97841,-8.726773 1.408577,-2.144878 3.633488,-3.713521 6.588298,-4.744343 a 27.166323,27.166323 0 0 1 8.970073,-1.546233 c 3.822365,0 7.452651,0.841945 10.948482,2.548243 3.444611,1.792735 5.720743,3.226922 6.831598,4.283355 3.604675,3.659098 6.42503,7.619119 8.429051,11.899272 0.678678,1.600655 1.194089,3.822365 1.546233,6.639518 0.352144,2.849167 0.544223,5.016454 0.595444,6.562687 z m 8.890039,-13.82326 c 0.380956,-1.491811 0.6786784,-2.519431 0.9475884,-3.089265 0.544223,-2.058443 1.139667,-3.822365 1.843955,-5.259753 0.297722,-0.893166 0.758711,-1.920787 1.382967,-3.114876 0.595443,-1.194089 1.248511,-2.577055 1.952799,-4.094477 0.406567,-0.896367 0.8643535,-2.00402 1.3285435,-3.306954 0.486599,-1.299732 0.973199,-2.573853 1.434187,-3.847975 0.435379,-1.056433 0.64986595,-2.196099 0.64986595,-3.415799 0,-2.602665 -0.94758795,-4.795563 -2.79154145,-6.613908 -1.840754,-1.840753 -4.091276,-2.76273 -6.7483644,-2.76273 -6.287374,0 -9.459873,3.169297 -9.459873,9.459872 0,1.216499 0.217689,2.356165 0.649866,3.412598 1.168479,3.44461 2.061644,5.826385 2.6859,7.158131 0.704288,1.517421 1.328544,2.900388 1.920786,4.091275 0.573035,1.194089 1.088446,2.22171 1.491811,3.118077 0.704289,1.760721 1.274122,3.495831 1.760721,5.256552 0.112046,0.297722 0.409768,1.328544 0.950789,3.009232 z m -2.845965,19.921757 c 0,-2.112865 -0.05442,-5.042065 -0.160065,-8.755585 -0.108845,-3.739131 -0.515411,-6.857208 -1.194089,-9.347827 -2.167288,-7.074897 -5.448631,-12.795639 -9.86644,-17.130215 -2.276132,-2.224911 -5.746353,-4.312165 -10.461883,-6.210542 -5.394209,-2.112866 -10.516306,-3.169298 -15.340681,-3.169298 -8.349019,0 -14.55636,2.98042 -18.567603,8.973274 -2.276132,3.169298 -3.415798,7.15493 -3.415798,11.896071 0,5.205331 1.274121,9.459873 3.796754,12.79563899 1.328544,1.89517601 3.873586,4.25454201 7.641529,7.07489701 3.742332,2.791543 6.940442,5.391007 9.514295,7.779185 4.609888,-1.005212 9.812018,-1.872767 15.612793,-2.631478 5.800775,-0.7331 13.282238,-1.165277 22.441188,-1.274121 z m 44.12687,37.567381 -2.35937,-9.37984 C 18.206528,37.035945 5.2220119,35.841856 -10.390781,35.841856 c -15.449525,0 -28.376418,1.194089 -38.758269,3.553455 l -2.519431,9.456672 c 10.052116,-3.060453 23.824154,-4.606686 41.360935,-4.606686 8.4002389,0 16.2338459,0.435378 23.417588,1.274122 7.209351,0.838743 13.144582,1.923987 17.780082,3.252531 z m -2.05844,-23.744121 c -9.73199,-2.682699 -22.7165061,-4.036853 -38.895931,-4.036853 -16.317081,0 -29.436052,1.379765 -39.382525,4.120087 l 1.190888,8.022484 c 10.004096,-2.602665 22.7133,-3.905599 38.191637,-3.905599 15.3951039,0 27.944242,1.274122 37.621801,3.822365 z M -7.5448146,11.287803 c 9.1077285,0.160065 16.5891915,0.621054 22.4155776,1.354154 5.800775,0.7331 11.060531,1.626266 15.718431,2.628276 2.90359,-2.871575 6.12731,-5.583085 9.67757,-8.185751 3.55025,-2.602666 6.04407,-4.824375 7.48146,-6.66833001 2.52263,-3.44140899 3.79675,-7.72476299 3.79675,-12.87247099 0,-4.68992 -1.13966,-8.64674 -3.41579,-11.81924 -4.06567,-5.986451 -10.30182,-8.970072 -18.64764,-8.970072 -4.8788,0 -9.949673,1.056432 -15.260648,3.169297 -4.8243751,1.898378 -8.2913941,3.960022 -10.4906951,6.17853 -4.49784105,4.366588 -7.7791845,10.084129 -9.8376275,17.159026 -0.787522,2.439399 -1.219699,5.528664 -1.302933,9.296607 -0.08323,3.767942 -0.134455,6.66833 -0.134455,8.729974 z m 5.8007745,-6.17853 c 0,-1.546233 0.192078,-3.71352 0.512209,-6.562687 0.35534595,-2.817153 0.89636695,-5.042064 1.62946795,-6.639518 1.97841005,-4.283354 4.76995305,-8.240174 8.42905105,-11.899272 1.056432,-1.056433 3.3357661,-2.493821 6.8315971,-4.283355 a 24.506034,24.506034 0 0 1 11.031719,-2.548243 c 2.97722,0 5.90642,0.515411 8.86123,1.546233 2.9292,1.030822 5.15091,2.602666 6.6139,4.744343 1.32855,1.789533 2.00723,4.686719 2.00723,8.726773 0,3.169298 -1.30294,6.124108 -3.9056,8.89004 a 129.17289,129.17289 0 0 1 -5.47424,5.285364 c -1.9528,1.760721 -3.84798,3.847976 -5.63431,6.232952 C 26.091354,7.545471 21.811204,6.706727 16.333762,6.136894 10.85952,5.54145 4.8410559,5.214916 -1.7440401,5.106072 Z"
         id="path892" />
    </g>
  </g>
  <g
     inkscape:groupmode="layer"
     id="g1043"
     inkscape:label="Blue trail"
     style="display:inline;opacity:1">
    <path
       style="display:inline;opacity:1;fill:#07a2ff;fill-opacity:1;fill-rule:nonzero;stroke:none;stroke-width:7.923491;stroke-linejoin:round;stroke-miterlimit:4;stroke-dasharray:none;stroke-opacity:1;paint-order:fill markers stroke"
       d="M 256,640 33.757797,1326.8671 h 493.290993 28.3223 3.6777 l 134.7227,-414.63077 h -4.2422 l 69.7676,-215.62891 -484.76173,-29.32031 z"
       id="path1113"
       inkscape:connector-curvature="0"
       clip-path="url(#clipPath6342)" />
  </g>
  <g
     inkscape:groupmode="layer"
     id="g1016"
     inkscape:label="Blue King"
     style="display:inline">
    <g
       style="clip-rule:evenodd;fill-rule:evenodd;image-rendering:optimizeQuality;shape-rendering:geometricPrecision;text-rendering:geometricPrecision"
       id="g1014"
       transform="matrix(3.7795276,0,0,3.7795276,544.55849,715.60836)">
      <path
         id="path1010"
         d="m -7.5992376,-49.99809 h -5.6343064 v -10.40426 h -6.61711 c -1.786331,0 -2.682698,-0.870756 -2.682698,-2.631477 v -0.08003 c 0,-1.73511 0.896367,-2.602666 2.682698,-2.602666 h 6.613908 v -6.748357 c 0,-1.87277 0.95079,-2.79155 2.849167,-2.79155 1.8407534,0 2.7883414,0.91878 2.7883414,2.79155 v 6.748357 h 6.83159745 c 1.73511,0 2.60266505,0.864354 2.60266505,2.602666 v 0.08003 c 0,1.760721 -0.86755505,2.628276 -2.60266505,2.628276 l -6.77717445,0.08323 z M -54.949825,32.346025 -57.55249,17.491943 c -0.05442,0 -0.134455,-0.105643 -0.2433,-0.323332 -0.272111,-0.380956 -1.030822,-0.867555 -2.276132,-1.462999 -1.219699,-0.624256 -2.682698,-1.655078 -4.308964,-3.143687 A 134.42304,134.42304 0 0 1 -69.829517,7.791972 27.239953,27.239953 0 0 1 -73.350959,3.83195 c -3.230122,-4.44021801 -5.048467,-9.812017 -5.400611,-16.125002 -0.544223,-6.072886 1.923988,-12.145773 7.372619,-18.189848 5.503053,-6.018464 12.955704,-8.861228 22.306733,-8.483474 3.495831,0.21769 7.619119,1.056433 12.305838,2.548244 1.546233,0.624255 3.118077,1.248511 4.744343,1.843955 l 4.795563,1.869565 c 0.841945,0.435379 1.600656,0.867555 2.224911,1.274122 a 14.021741,14.021741 0 0 1 -0.406566,-3.332565 c 0,-4.120086 1.462999,-7.64473 4.417809,-10.570727 2.925998,-2.900388 6.476251,-4.392198 10.596338,-4.446621 4.1200874,0 7.6447299,1.491811 10.57072785,4.417809 2.90038805,2.929199 4.36338705,6.450641 4.36338705,10.516305 0,0.841945 -0.108845,1.9528 -0.323333,3.335766 0.729899,-0.460989 1.462999,-0.867555 2.141677,-1.194089 2.439399,-1.056432 5.6343071,-2.304943 9.6199391,-3.71352 4.555465,-1.543032 8.646738,-2.410587 12.305838,-2.628276 9.35103,-0.435379 16.77807,2.410587 22.2267,8.483473 5.33979,6.044075 7.83361,12.116962 7.45265,18.186647 -0.40656,6.316186 -2.25052,11.68478399 -5.47424,16.128203 -1.05643,1.437389 -2.25052,2.762732 -3.57906,4.011243 a 129.65308,129.65308 0 0 1 -5.31418,4.71553 c -1.73191,1.491811 -3.22372,2.548244 -4.44342,3.143688 -1.2165,0.595443 -1.92079,1.110854 -2.14168,1.462999 a 0.94118536,0.94118536 0 0 1 -0.16006,0.246501 c -0.0544,0.05442 -0.0832,0.108844 -0.0832,0.160065 l -2.54824,14.937316 5.25975,19.595223 c -2.65709,2.384977 -8.59232,4.337776 -17.780082,5.880808 -9.216573,1.546233 -19.8673341,2.304944 -31.929873,2.304944 -12.277027,0 -23.094256,-0.813133 -32.390862,-2.413789 -9.322247,-1.626266 -15.177444,-3.659098 -17.562421,-6.069685 z"
         inkscape:connector-curvature="0"
         style="fill:#47baff;fill-opacity:1;stroke-width:3.20131063" />
      <path
         id="path1012"
         d="m -10.387579,-22.297148 a 7.3470081,7.3470081 0 0 0 -0.409768,-1.354155 17.946548,17.946548 0 0 0 -0.784321,-2.304944 c -0.163267,-0.352144 -0.380956,-0.813133 -0.624256,-1.379765 a 28.901433,28.901433 0 0 1 -0.813133,-1.792734 c -0.160065,-0.377754 -0.352144,-0.864354 -0.595443,-1.459797 -0.21769,-0.624256 -0.435379,-1.194089 -0.598646,-1.7095 a 5.5542741,5.5542741 0 0 1 -0.214487,-1.517422 c 0,-2.791543 1.328544,-4.200119 4.036852,-4.200119 2.8171544,0 4.2033214,1.379765 4.2033214,4.120087 0,0.704288 -0.108844,1.190887 -0.300923,1.517421 -0.75871,2.004021 -1.136465,3.089265 -1.190887,3.252532 -0.813133,1.600655 -1.299732,2.628276 -1.517422,3.089265 -0.380956,0.864353 -0.624255,1.626265 -0.704288,2.304943 -0.1632674,0.323333 -0.2721114,0.595444 -0.3265344,0.838744 -0.05442,0.2433 -0.108844,0.435378 -0.160065,0.595444 z m -8.893241,27.40322 c -6.613908,0.108844 -12.657983,0.435378 -18.161036,1.030822 -5.474242,0.569833 -9.699972,1.408577 -12.738016,2.465009 a 60.738469,60.738469 0 0 0 -5.503053,-5.93523 105.66566,105.66566 0 0 1 -5.528663,-5.583086 c -2.657088,-2.71151 -3.956821,-5.66632 -3.956821,-8.89004 0,-3.985632 0.649867,-6.882818 1.97841,-8.726773 1.408577,-2.144878 3.633488,-3.713521 6.588298,-4.744343 a 27.166323,27.166323 0 0 1 8.970073,-1.546233 c 3.822365,0 7.452651,0.841945 10.948482,2.548243 3.444611,1.792735 5.720743,3.226922 6.831598,4.283355 3.604675,3.659098 6.42503,7.619119 8.429051,11.899272 0.678678,1.600655 1.194089,3.822365 1.546233,6.639518 0.352144,2.849167 0.544223,5.016454 0.595444,6.562687 z m 8.890039,-13.82326 c 0.380956,-1.491811 0.6786784,-2.519431 0.9475884,-3.089265 0.544223,-2.058443 1.139667,-3.822365 1.843955,-5.259753 0.297722,-0.893166 0.758711,-1.920787 1.382967,-3.114876 0.595443,-1.194089 1.248511,-2.577055 1.952799,-4.094477 0.406567,-0.896367 0.8643535,-2.00402 1.3285435,-3.306954 0.486599,-1.299732 0.973199,-2.573853 1.434187,-3.847975 0.435379,-1.056433 0.64986595,-2.196099 0.64986595,-3.415799 0,-2.602665 -0.94758795,-4.795563 -2.79154145,-6.613908 -1.840754,-1.840753 -4.091276,-2.76273 -6.7483644,-2.76273 -6.287374,0 -9.459873,3.169297 -9.459873,9.459872 0,1.216499 0.217689,2.356165 0.649866,3.412598 1.168479,3.44461 2.061644,5.826385 2.6859,7.158131 0.704288,1.517421 1.328544,2.900388 1.920786,4.091275 0.573035,1.194089 1.088446,2.22171 1.491811,3.118077 0.704289,1.760721 1.274122,3.495831 1.760721,5.256552 0.112046,0.297722 0.409768,1.328544 0.950789,3.009232 z m -2.845965,19.921757 c 0,-2.112865 -0.05442,-5.042065 -0.160065,-8.755585 -0.108845,-3.739131 -0.515411,-6.857208 -1.194089,-9.347827 -2.167288,-7.074897 -5.448631,-12.795639 -9.86644,-17.130215 -2.276132,-2.224911 -5.746353,-4.312165 -10.461883,-6.210542 -5.394209,-2.112866 -10.516306,-3.169298 -15.340681,-3.169298 -8.349019,0 -14.55636,2.98042 -18.567603,8.973274 -2.276132,3.169298 -3.415798,7.15493 -3.415798,11.896071 0,5.205331 1.274121,9.459873 3.796754,12.79563899 1.328544,1.89517601 3.873586,4.25454201 7.641529,7.07489701 3.742332,2.791543 6.940442,5.391007 9.514295,7.779185 4.609888,-1.005212 9.812018,-1.872767 15.612793,-2.631478 5.800775,-0.7331 13.282238,-1.165277 22.441188,-1.274121 z m 44.12687,37.567381 -2.35937,-9.37984 C 18.206528,37.035945 5.2220119,35.841856 -10.390781,35.841856 c -15.449525,0 -28.376418,1.194089 -38.758269,3.553455 l -2.519431,9.456672 c 10.052116,-3.060453 23.824154,-4.606686 41.360935,-4.606686 8.4002389,0 16.2338459,0.435378 23.417588,1.274122 7.209351,0.838743 13.144582,1.923987 17.780082,3.252531 z m -2.05844,-23.744121 c -9.73199,-2.682699 -22.7165061,-4.036853 -38.895931,-4.036853 -16.317081,0 -29.436052,1.379765 -39.382525,4.120087 l 1.190888,8.022484 c 10.004096,-2.602665 22.7133,-3.905599 38.191637,-3.905599 15.3951039,0 27.944242,1.274122 37.621801,3.822365 z M -7.5448146,11.287803 c 9.1077285,0.160065 16.5891915,0.621054 22.4155776,1.354154 5.800775,0.7331 11.060531,1.626266 15.718431,2.628276 2.90359,-2.871575 6.12731,-5.583085 9.67757,-8.185751 3.55025,-2.602666 6.04407,-4.824375 7.48146,-6.66833001 2.52263,-3.44140899 3.79675,-7.72476299 3.79675,-12.87247099 0,-4.68992 -1.13966,-8.64674 -3.41579,-11.81924 -4.06567,-5.986451 -10.30182,-8.970072 -18.64764,-8.970072 -4.8788,0 -9.949673,1.056432 -15.260648,3.169297 -4.8243751,1.898378 -8.2913941,3.960022 -10.4906951,6.17853 -4.49784105,4.366588 -7.7791845,10.084129 -9.8376275,17.159026 -0.787522,2.439399 -1.219699,5.528664 -1.302933,9.296607 -0.08323,3.767942 -0.134455,6.66833 -0.134455,8.729974 z m 5.8007745,-6.17853 c 0,-1.546233 0.192078,-3.71352 0.512209,-6.562687 0.35534595,-2.817153 0.89636695,-5.042064 1.62946795,-6.639518 1.97841005,-4.283354 4.76995305,-8.240174 8.42905105,-11.899272 1.056432,-1.056433 3.3357661,-2.493821 6.8315971,-4.283355 a 24.506034,24.506034 0 0 1 11.031719,-2.548243 c 2.97722,0 5.90642,0.515411 8.86123,1.546233 2.9292,1.030822 5.15091,2.602666 6.6139,4.744343 1.32855,1.789533 2.00723,4.686719 2.00723,8.726773 0,3.169298 -1.30294,6.124108 -3.9056,8.89004 a 129.17289,129.17289 0 0 1 -5.47424,5.285364 c -1.9528,1.760721 -3.84798,3.847976 -5.63431,6.232952 C 26.091354,7.545471 21.811204,6.706727 16.333762,6.136894 10.85952,5.54145 4.8410559,5.214916 -1.7440401,5.106072 Z"
         inkscape:connector-curvature="0"
         style="fill:#f9f9fa;fill-opacity:1;stroke-width:3.20131063" />
    </g>
  </g>
  <g
     inkscape:label="circle clip"
     id="g6332"
     inkscape:groupmode="layer" />
</svg>
