<svg height="512" width="512" viewBox="0 0 135.467 135.467" xmlns="http://www.w3.org/2000/svg">
	<defs>
		<linearGradient id="b">
			<stop offset="0" stopColor="#91eaff"/>
			<stop offset="1" stopColor="#0cf"/>
		</linearGradient>
		<linearGradient id="a">
			<stop offset="0" stopColor="#00ff78"/>
			<stop offset=".682" stopColor="#81ffbc"/>
			<stop offset="1" stopColor="#c1ffde"/>
		</linearGradient>
		<linearGradient id="c" gradientTransform="translate(-135.467)" gradientUnits="userSpaceOnUse" spreadMethod="pad" x1="0" x2="135.467" y1="67.733" y2="67.733" xlinkHref="#a"/>
		<clipPath id="d">
			<ellipse cx="395.909" cy="386.562" fill="#5df" rx="317.639" ry="317.061" stroke="#9cb0ae" strokeWidth="25.966"/>
		</clipPath>
		<clipPath id="f">
			<circle cx="67.733" cy="67.733" fill="#5df" r="65.077" stroke="#9cb0ae" strokeWidth="5.312"/>
		</clipPath>
		<linearGradient id="g" gradientUnits="userSpaceOnUse" x1="79.933" x2="54.912" y1="44.439" y2="132.546" xlinkHref="#b"/>
		<clipPath id="e">
			<circle cx="256" cy="255.215" r="274.286" strokeWidth="11.863"/>
		</clipPath>
	</defs>
	<ellipse cx="-67.733" cy="67.733" fill="url(#c)" rx="66.182" ry="66.182" stroke="#000" strokeWidth="3.102" transform="rotate(-90)"/>
	<path clipPath="url(#e)" d="M242.59 21.986v27.112h-30.537v27.109h30.537l-.002 43.969c-13.13 5.035-26.353 17.41-39.39 36.8-8.365-6.922-18.264-14.206-30.096-21.695-15.316-8.941-30.394-13.412-45.233-13.412-26.825 0-52.222 10.987-76.193 32.961-23.972 21.974-35.864 48.085-35.674 78.334.19 48.513 31.202 99.404 93.033 152.674L91.627 490H154v46h216v-46h50.375l-17.406-104.162c61.64-53.27 92.65-104.16 93.031-152.674 0-30.25-11.986-56.36-35.957-78.334-23.971-21.974-49.275-32.96-75.91-32.96-14.84 0-29.963 4.47-45.373 13.411a153.652 153.652 0 0 0-29.559 22.276c-13.27-19.679-26.629-32.226-39.787-37.338V76.207h30.535v-27.11h-30.535v-27.11z" fill="#001e0e" transform="matrix(.24694 0 0 .24694 4.516 4.71)"/>
	<path clipPath="url(#f)" d="M79.933 44.44c-4.075-.663-7.997 1.442-11.69 2.925-9.35 3.878-17.636 10.839-21.76 20.24-2.38 4.435-2.49 10.005.223 14.32 3.417 5.675 7.598 11.316 8.013 18.185.947 8.364-4.711 15.509-10.294 21.05-5.015 4.863-10.67 9.047-16.657 12.637l48.432 1.67c4.36-10.552 7.1-22.445 4.345-33.763-1.948-8.274-8.436-14.113-14.022-20.05-5.354-5.426-8.028-13.943-4.854-21.16 3.393-7.667 10.839-12.744 18.264-16.055z" fill="url(#g)"/>
	<ellipse cx="-67.733" cy="67.733" fill="none" rx="66.182" ry="66.182" stroke="#000" strokeWidth="3.102" transform="rotate(-90)"/>
</svg>