<svg height="512" width="512" xmlns="http://www.w3.org/2000/svg" xmlns:xlink="http://www.w3.org/1999/xlink"><defs><clipPath id="b"><circle r="240" cy="272" cx="256"/></clipPath><clipPath id="a"><path transform="rotate(18)" d="M240 16h200v512H240z"/><path transform="rotate(18)" d="M292 78h200v512H292z"/><path transform="rotate(18)" d="M361-37h128V91H361z"/></clipPath><path id="c" clip-path="url(#a)" d="M0 0h512v512H0z"/><g id="d"><path d="m397 1770 66-244-33-187q-1 0-3-4-5-7-28.5-18.5T344 1277q-44-37-68.5-60t-44.5-50q-61-84-68-203-10-115 93-229 104-114 281-107 66 4 155 32 29 12 59.5 23.5T812 707q16 8 28 16-5-21-5-42 0-78 55.5-133t133.5-56q78 0 133 55.5t55 132.5q0 16-4 42 14-9 27-15 46-20 121-47 86-29 155-33 177-8 280 107 101 114 94 229-8 119-69 203-20 27-45 50.5t-67 59.5q-33 28-56 39.5t-27 18.5q-1 2-2 3t-1 2l-32 188 66 247q-50 45-224 74t-402 29q-232 0-408-30.5T397 1770Zm663-1411-1 130h-71V358h-83q-34 0-34-33v-1q0-33 34-33h83v-85q0-35 36-35 35 0 35 35v85h86q33 0 33 33v1q0 33-33 33l-85 1Z" transform="scale(.15)"/><path d="m1502 1535 16-101q-184-51-490-51-308 0-496 52l15 101q189-49 481-49 291 0 474 48Zm42 198-30-118q-195-45-490-45-292 0-488 45l-32 119q190-58 521-58 159 0 295 16t224 41Zm-411-550q0-29 6.5-82.5t20.5-83.5q37-81 106-150 20-20 86-54 65-32 139-32 56 0 111.5 19.5T1686 860q25 34 25 110 0 60-49 112-32 33-69 66.5t-71 78.5q-58-20-161.5-31t-227.5-13Zm-73 78q172 3 282 17t198 33q55-54 122-103t94-84q48-65 48-162 0-89-43-149-77-113-235-113-92 0-192 40-91 36-132 78-85 82-124 216-15 46-16.5 117t-1.5 110Zm-72-1q0-40-2-110.5T971 1032q-41-134-124-216-43-42-132-78-102-40-193-40-158 0-234 113-43 60-43 150 0 98 48 161 25 36 96 89t120 98q87-19 196.5-33t282.5-16Zm36-251q7-28 12-39 10-39 23-66 6-17 17.5-39.5T1101 813q8-17 17-41.5t18-48.5q8-20 8-43 0-49-35-83.5t-85-34.5q-119 0-119 119 0 23 8 43 22 65 34 90 13 29 24 51.5t19 39.5q13 33 22 66 2 6 12 38Zm-112 174q-125 2-228.5 13T523 1227q-30-37-69.5-74.5T384 1082q-50-51-50-112 0-75 25-110 27-40 83-59.5T555 781q72 0 138 32 65 34 86 54 68 69 106 150 13 30 19.5 83.5t7.5 82.5Zm112-345q-2-10-5-17-6-20-10-29-3-7-8-17.5T991 752q-3-7-7.5-18.5T976 712q-3-9-3-19 0-53 51-53 53 0 53 52 0 13-4 19-14 38-15 41-15 30-19 39-7 16-9 29-3 6-4 10.5t-2 7.5Z" fill="#f9f9fa" transform="scale(.15)"/></g></defs><rect width="100%" height="100%" fill="#363959" clip-path="url(#b)"/><g fill="#0d7758"><g clip-path="url(#b)"><use href="#c" xlink:href="#c" x="1.5" y="38"/></g><path d="m355.886 119.84 121.735 39.554-39.554 121.736-121.736-39.555z"/></g><use href="#d" xlink:href="#d" x="198" y="-1" fill="#14b184"/><g fill="#c00043" clip-path="url(#b)"><use href="#c" xlink:href="#c" x="-192.5" y="100"/></g><use href="#d" xlink:href="#d" x="4" y="61" fill="#ff0059"/><g fill="#07a2ff" clip-path="url(#b)"><use href="#c" xlink:href="#c" x="-96" y="228"/></g><use href="#d" xlink:href="#d" x="100" y="189" fill="#47baff"/></svg>