<?xml version="1.0" encoding="UTF-8" standalone="no" ?>
<svg
    height="512"
    width="512"
    viewBox="0 0 512 512"
    xmlns="http://www.w3.org/2000/svg"
    xmlns:xlink="http://www.w3.org/1999/xlink"
>
    <defs>
        <g id="king" transform="scale(4.25, 4.25)">
            <path
                id="king-fill"
                d="
                    M13.96-9.77 L16.28-18.35 L15.12-24.93 Q15.08-24.93 15.01-25.07 L15.01-25.07 Q14.84-25.31 14.01-25.72 Q13.18-26.12 12.09-27.11 L12.09-27.11 Q10.55-28.41 9.69-29.21 Q8.82-30.02 8.12-30.97 L8.12-30.97 Q5.98-33.93 5.73-38.11 L5.73-38.11 Q5.38-42.15 9-46.16 L9-46.16 Q12.66-50.17 18.88-49.92 L18.88-49.92 Q21.20-49.78 24.33-48.80 L24.33-48.80 Q25.35-48.38 26.42-47.97 Q27.49-47.57 28.55-47.14 L28.55-47.14 Q29.11-46.86 29.53-46.58 L29.53-46.58 Q29.36-47.32 29.36-48.06 L29.36-48.06 Q29.36-50.80 31.31-52.73 Q33.26-54.67 36-54.70 L36-54.70 Q38.74-54.70 40.68-52.75 Q42.61-50.80 42.61-48.09 L42.61-48.09 Q42.61-47.53 42.47-46.62 L42.47-46.62 Q42.96-46.93 43.42-47.14 L43.42-47.14 Q45.04-47.85 47.67-48.80 L47.67-48.80 Q50.70-49.82 53.12-49.96 L53.12-49.96 Q59.34-50.24 62.96-46.20 L62.96-46.20 Q66.52-42.19 66.27-38.14 L66.27-38.14 Q65.99-33.96 63.84-31.01 L63.84-31.01 Q63.14-30.06 62.26-29.23 Q61.38-28.41 59.91-27.14 L59.91-27.14 Q58.75-26.16 57.94-25.75 Q57.13-25.35 56.99-25.10 L56.99-25.10 Q56.95-25.03 56.92-25.00 Q56.88-24.96 56.88-24.93 L56.88-24.93 L55.76-18.32 L58.08-9.63 Q56.32-8.05 50.20-7.03 Q44.09-6.01 36.07-6.01 L36.07-6.01 Q27.91-6.01 21.73-7.08 Q15.54-8.16 13.96-9.77 L13.96-9.77Z
                    M37.27-59.38 L37.23-54.81 L34.73-54.81 L34.73-59.41 L31.82-59.41 Q30.62-59.41 30.62-60.57 L30.62-60.57 L30.62-60.61 Q30.62-61.77 31.82-61.77 L31.82-61.77 L34.73-61.77 L34.73-64.76 Q34.73-65.99 36-65.99 L36-65.99 L36-65.99 Q37.23-65.99 37.23-64.76 L37.23-64.76 L37.23-61.77 L40.25-61.77 Q41.41-61.77 41.41-60.61 L41.41-60.61 L41.41-60.57 Q41.41-59.41 40.25-59.41 L40.25-59.41 L37.27-59.38Z
                "
            />
            <path
                id="king-white-parts"
                d="
                    M52.80-18.04 L53.37-21.59 Q46.90-23.38 36.14-23.38 L36.14-23.38 Q25.31-23.38 18.70-21.55 L18.70-21.55 L19.23-18 Q25.88-19.72 36.14-19.72 L36.14-19.72 Q46.37-19.72 52.80-18.04 L52.80-18.04Z
                    M54.28-11.07 L54.28-11.07 L53.23-15.22 Q46.37-16.80 36-16.80 L36-16.80 Q25.73-16.80 18.84-15.22 L18.84-15.22 L17.72-11.04 Q24.40-13.08 36.04-13.08 L36.04-13.08 Q41.63-13.08 46.41-12.52 Q51.19-11.95 54.28-11.07Z
                    M39.83-30.41 L39.83-30.41 Q39.83-31.43 40.06-33.31 Q40.29-35.19 40.78-36.25 L40.78-36.25 Q42.08-39.09 44.51-41.52 L44.51-41.52 Q45.21-42.22 47.53-43.42 L47.53-43.42 Q49.82-44.54 52.42-44.54 L52.42-44.54 Q54.39-44.54 56.34-43.86 Q58.29-43.17 59.27-41.77 L59.27-41.77 Q60.15-40.57 60.15-37.90 L60.15-37.90 Q60.15-35.79 58.43-33.96 L58.43-33.96 Q57.30-32.80 56.00-31.62 Q54.70-30.45 53.51-28.86 L53.51-28.86 Q51.47-29.57 47.83-29.95 Q44.19-30.34 39.83-30.41Z
                    M37.27-27.67 L37.27-27.67 Q43.31-27.56 47.18-27.07 Q51.05-26.58 54.14-25.91 L54.14-25.91 Q56.07-27.81 58.43-29.53 Q60.79-31.25 61.73-32.48 L61.73-32.48 Q63.42-34.77 63.42-38.18 L63.42-38.18 Q63.42-41.31 61.91-43.42 L61.91-43.42 Q59.20-47.39 53.65-47.39 L53.65-47.39 Q50.41-47.39 46.90-45.98 L46.90-45.98 Q43.70-44.72 42.26-43.24 L42.26-43.24 Q39.27-40.36 37.90-35.65 L37.90-35.65 Q37.37-34.03 37.32-31.54 Q37.27-29.04 37.27-27.67Z
                    M34.73-27.70 L34.73-27.70 Q34.73-29.11 34.66-31.59 Q34.59-34.07 34.14-35.72 L34.14-35.72 Q32.70-40.43 29.78-43.31 L29.78-43.31 Q28.27-44.79 25.14-46.05 L25.14-46.05 Q21.55-47.46 18.35-47.46 L18.35-47.46 Q12.80-47.46 10.13-43.49 L10.13-43.49 Q8.61-41.38 8.61-38.21 L8.61-38.21 Q8.61-34.77 10.30-32.55 L10.30-32.55 Q11.18-31.29 13.68-29.43 Q16.17-27.56 17.89-25.98 L17.89-25.98 Q20.95-26.65 24.80-27.14 Q28.65-27.63 34.73-27.70Z
                    M32.06-30.41 L32.06-30.41 Q27.67-30.34 24.03-29.95 Q20.39-29.57 18.39-28.86 L18.39-28.86 Q17.33-30.16 15.94-31.48 Q14.55-32.80 13.50-33.96 L13.50-33.96 Q11.74-35.75 11.74-37.90 L11.74-37.90 Q11.74-40.54 12.62-41.77 L12.62-41.77 Q13.57-43.17 15.54-43.86 Q17.51-44.54 19.51-44.54 L19.51-44.54 Q22.04-44.54 24.36-43.42 L24.36-43.42 Q26.65-42.22 27.39-41.52 L27.39-41.52 Q29.78-39.09 31.11-36.25 L31.11-36.25 Q31.57-35.19 31.80-33.31 Q32.03-31.43 32.06-30.41Z
                    M36-36.53 L36-36.53 Q36.25-37.51 36.42-37.90 L36.42-37.90 Q36.77-39.27 37.23-40.22 L37.23-40.22 Q37.44-40.82 37.85-41.61 Q38.25-42.40 38.71-43.42 L38.71-43.42 Q38.99-44.02 39.30-44.88 Q39.62-45.74 39.94-46.58 L39.94-46.58 Q40.22-47.29 40.22-48.09 L40.22-48.09 Q40.22-49.82 38.99-51.03 Q37.76-52.24 36-52.24 L36-52.24 Q31.82-52.24 31.82-48.06 L31.82-48.06 Q31.82-47.25 32.10-46.55 L32.10-46.55 Q32.87-44.26 33.29-43.38 L33.29-43.38 Q33.75-42.36 34.14-41.57 Q34.52-40.78 34.80-40.18 L34.80-40.18 Q35.26-39.02 35.58-37.86 L35.58-37.86 Q35.65-37.65 36-36.53Z
                    M36-42.54 L36-42.54 Q35.93-42.89 35.82-43.14 L35.82-43.14 Q35.61-43.84 35.47-44.16 L35.47-44.16 Q35.37-44.40 35.19-44.77 Q35.02-45.14 34.84-45.56 L34.84-45.56 Q34.73-45.81 34.58-46.21 Q34.42-46.62 34.31-46.97 L34.31-46.97 Q34.21-47.29 34.21-47.64 L34.21-47.64 Q34.21-49.50 36-49.50 L36-49.50 Q37.86-49.50 37.86-47.67 L37.86-47.67 Q37.86-47.21 37.72-47.00 L37.72-47.00 Q37.23-45.67 37.20-45.56 L37.20-45.56 Q36.67-44.51 36.53-44.19 L36.53-44.19 Q36.28-43.63 36.21-43.17 L36.21-43.17 Q36.11-42.96 36.07-42.80 Q36.04-42.64 36-42.54Z
                "
                fill="#f9f9fa"
            />
        </g>
        <clipPath id="circle">
            <circle r="240" cy="272" cx="256"/>
        </clipPath>
        <clipPath id="tail-clip">
            <rect
                id="back-tail"
                x="240"
                y="16"
                width="200"
                height="512"
                transform="rotate(18)"
            />
            <rect
                id="front-tail"
                x="291"
                y="80"
                width="200"
                height="512"
                transform="rotate(18)"
            />
            <rect
                id="top-tail"
                x="361"
                y="-37"
                width="128"
                height="128"
                transform="rotate(18)"
            />
        </clipPath>
        <rect
            id="tail"
            width="512"
            height="512"
            x="0"
            y="0"
            clip-path="url(#tail-clip)"
        />
    </defs>
    <rect
        id="background"
        x="0"
        y="0"
        width="100%"
        height="100%"
        fill="#363959"
        clip-path="url(#circle)"
    />
    <g id="green-tail" fill="#0d7758">
        <g clip-path="url(#circle)">
            <use href="#tail" xlink:href="#tail" x="1.5" y="38"/>
        </g>
        <rect
            id="green-tail-outside"
            x="374.75"
            y="4"
            width="128"
            height="128"
            transform="rotate(18)"
            stroke-width="0"
        />
    </g>
    <use
        id="green-king"
        href="#king"
        xlink:href="#king"
        x="198"
        y="306"
        fill="#14b184"
    />
    <g id="red-tail" fill="#c00043" clip-path="url(#circle)">
        <use href="#tail" xlink:href="#tail" x="-192.5" y="100" />
    </g>
    <use
        id="red-king"
        href="#king"
        xlink:href="#king"
        x="4"
        y="368"
        fill="#ff0059"
    />
    <g id="blue-tail" fill="#07a2ff" clip-path="url(#circle)">
        <use href="#tail" xlink:href="#tail" x="-96" y="228"/>
    </g>
    <use
        id="blue-king"
        href="#king"
        xlink:href="#king"
        x="100"
        y="496"
        fill="#47baff"
    />
</svg>